<svg width="1228" height="200" viewBox="0 0 1228 200" fill="none" xmlns="http://www.w3.org/2000/svg">
<path d="M404.617 172.28V175.448H397.545V195H393.673V175.448H386.601V172.28H404.617ZM410.699 171.8V181.976C411.723 179.736 413.494 178.616 416.011 178.616C417.782 178.616 419.126 179.171 420.043 180.28C420.982 181.389 421.451 183.021 421.451 185.176V195H417.867V185.464C417.867 182.819 416.779 181.496 414.603 181.496C413.366 181.496 412.406 181.944 411.723 182.84C411.04 183.736 410.699 184.995 410.699 186.616V195H407.147V171.8H410.699ZM439.695 187.928H428.143C428.164 189.336 428.58 190.467 429.391 191.32C430.223 192.152 431.311 192.568 432.655 192.568C433.636 192.568 434.479 192.344 435.183 191.896C435.908 191.448 436.442 190.797 436.783 189.944L439.567 191.16C438.991 192.525 438.095 193.571 436.879 194.296C435.663 195.021 434.202 195.384 432.495 195.384C430.042 195.384 428.122 194.669 426.735 193.24C425.37 191.811 424.687 189.795 424.687 187.192C424.687 184.525 425.37 182.435 426.735 180.92C428.1 179.384 429.978 178.616 432.367 178.616C434.714 178.616 436.516 179.267 437.775 180.568C439.055 181.848 439.695 183.715 439.695 186.168V187.928ZM436.143 185.464C436.143 184.035 435.812 182.947 435.151 182.2C434.49 181.453 433.54 181.08 432.303 181.08C431.023 181.08 430.02 181.464 429.295 182.232C428.57 183 428.186 184.077 428.143 185.464H436.143ZM466.314 175.384H455.338V181.912H465.77V184.984H455.338V195H451.466V172.28H466.314V175.384ZM469.46 179H473.012V195H469.46V179ZM471.22 176.408C470.558 176.408 470.014 176.195 469.588 175.768C469.161 175.341 468.948 174.819 468.948 174.2C468.948 173.581 469.161 173.059 469.588 172.632C470.014 172.205 470.558 171.992 471.22 171.992C471.881 171.992 472.425 172.205 472.852 172.632C473.278 173.059 473.492 173.581 473.492 174.2C473.492 174.819 473.278 175.341 472.852 175.768C472.425 176.195 471.881 176.408 471.22 176.408ZM480.945 179V182.168C482.012 179.8 483.825 178.616 486.385 178.616C488.199 178.616 489.564 179.171 490.481 180.28C491.399 181.368 491.857 182.989 491.857 185.144V195H488.273V185.496C488.273 182.829 487.185 181.496 485.009 181.496C483.793 181.496 482.833 181.944 482.129 182.84C481.447 183.736 481.105 184.984 481.105 186.584V195H477.553V179H480.945ZM509.429 189.912C509.429 192.195 509.6 193.891 509.941 195H506.325C506.176 194.125 506.091 193.197 506.069 192.216C505.685 193.197 505.003 193.976 504.021 194.552C503.04 195.107 501.877 195.384 500.533 195.384C498.869 195.384 497.525 194.957 496.501 194.104C495.499 193.251 494.997 192.109 494.997 190.68C494.997 189.891 495.168 189.176 495.509 188.536C495.872 187.896 496.384 187.384 497.045 187C497.6 186.659 498.293 186.381 499.125 186.168C499.957 185.955 501.024 185.763 502.325 185.592L505.877 185.176V184.824C505.877 183.565 505.611 182.648 505.077 182.072C504.544 181.496 503.723 181.208 502.613 181.208C501.589 181.208 500.779 181.443 500.181 181.912C499.605 182.381 499.285 183.043 499.221 183.896H495.509C495.637 182.275 496.331 180.995 497.589 180.056C498.869 179.096 500.544 178.616 502.613 178.616C504.981 178.616 506.709 179.149 507.797 180.216C508.885 181.261 509.429 182.947 509.429 185.272V189.912ZM501.621 192.792C502.901 192.792 503.925 192.387 504.693 191.576C505.483 190.765 505.877 189.677 505.877 188.312V187.352L501.941 187.928C500.811 188.099 499.989 188.387 499.477 188.792C498.965 189.197 498.709 189.763 498.709 190.488C498.709 191.192 498.965 191.757 499.477 192.184C500.011 192.589 500.725 192.792 501.621 192.792ZM517.387 195H513.835V171.8H517.387V195ZM534.025 191.928H545.225V195H530.153V172.28H545.001V175.352H534.025V181.848H544.457V184.888H534.025V191.928ZM547.484 179H551.548L554.236 183.064C554.684 183.768 554.982 184.312 555.132 184.696H555.164C555.249 184.44 555.537 183.896 556.028 183.064L558.588 179H562.652L557.244 186.84L563.132 195H559.004L555.932 190.52C555.462 189.837 555.164 189.283 555.036 188.856H555.004C554.897 189.219 554.588 189.773 554.076 190.52L551.036 195H547.068L552.988 186.712L547.484 179ZM578.679 189.912C578.679 192.195 578.85 193.891 579.191 195H575.575C575.426 194.125 575.341 193.197 575.319 192.216C574.935 193.197 574.253 193.976 573.271 194.552C572.29 195.107 571.127 195.384 569.783 195.384C568.119 195.384 566.775 194.957 565.751 194.104C564.749 193.251 564.247 192.109 564.247 190.68C564.247 189.891 564.418 189.176 564.759 188.536C565.122 187.896 565.634 187.384 566.295 187C566.85 186.659 567.543 186.381 568.375 186.168C569.207 185.955 570.274 185.763 571.575 185.592L575.127 185.176V184.824C575.127 183.565 574.861 182.648 574.327 182.072C573.794 181.496 572.973 181.208 571.863 181.208C570.839 181.208 570.029 181.443 569.431 181.912C568.855 182.381 568.535 183.043 568.471 183.896H564.759C564.887 182.275 565.581 180.995 566.839 180.056C568.119 179.096 569.794 178.616 571.863 178.616C574.231 178.616 575.959 179.149 577.047 180.216C578.135 181.261 578.679 182.947 578.679 185.272V189.912ZM570.871 192.792C572.151 192.792 573.175 192.387 573.943 191.576C574.733 190.765 575.127 189.677 575.127 188.312V187.352L571.191 187.928C570.061 188.099 569.239 188.387 568.727 188.792C568.215 189.197 567.959 189.763 567.959 190.488C567.959 191.192 568.215 191.757 568.727 192.184C569.261 192.589 569.975 192.792 570.871 192.792ZM586.477 181.848C587.394 179.693 588.994 178.616 591.277 178.616C593.581 178.616 595.127 179.704 595.917 181.88C596.983 179.704 598.669 178.616 600.973 178.616C602.551 178.616 603.778 179.139 604.653 180.184C605.527 181.229 605.965 182.701 605.965 184.6V195H602.413V185.112C602.413 182.701 601.474 181.496 599.597 181.496C598.551 181.496 597.741 181.859 597.165 182.584C596.589 183.309 596.301 184.344 596.301 185.688V195H592.717V185.048C592.717 183.875 592.482 182.989 592.013 182.392C591.543 181.795 590.861 181.496 589.965 181.496C588.919 181.496 588.098 181.88 587.501 182.648C586.925 183.416 586.637 184.461 586.637 185.784V195H583.085V179H586.477V181.848ZM631.043 183.224C632.451 183.459 633.55 184.056 634.339 185.016C635.15 185.976 635.555 187.203 635.555 188.696C635.555 189.827 635.299 190.872 634.787 191.832C634.275 192.771 633.454 193.539 632.323 194.136C631.192 194.712 629.742 195 627.971 195H618.403V172.28H627.395C630.019 172.28 631.928 172.867 633.123 174.04C634.339 175.192 634.947 176.6 634.947 178.264C634.947 179.416 634.606 180.44 633.923 181.336C633.262 182.232 632.302 182.861 631.043 183.224ZM622.275 175.288V181.944H626.883C628.419 181.944 629.486 181.635 630.083 181.016C630.702 180.376 631.011 179.587 631.011 178.648C631.011 177.667 630.691 176.867 630.051 176.248C629.411 175.608 628.355 175.288 626.883 175.288H622.275ZM627.331 191.992C628.824 191.992 629.912 191.651 630.595 190.968C631.278 190.285 631.619 189.411 631.619 188.344C631.619 187.299 631.278 186.467 630.595 185.848C629.934 185.208 628.931 184.888 627.587 184.888H622.275V191.992H627.331ZM653.351 187.928H641.799C641.821 189.336 642.237 190.467 643.047 191.32C643.879 192.152 644.967 192.568 646.311 192.568C647.293 192.568 648.135 192.344 648.839 191.896C649.565 191.448 650.098 190.797 650.439 189.944L653.223 191.16C652.647 192.525 651.751 193.571 650.535 194.296C649.319 195.021 647.858 195.384 646.151 195.384C643.698 195.384 641.778 194.669 640.391 193.24C639.026 191.811 638.343 189.795 638.343 187.192C638.343 184.525 639.026 182.435 640.391 180.92C641.757 179.384 643.634 178.616 646.023 178.616C648.37 178.616 650.173 179.267 651.431 180.568C652.711 181.848 653.351 183.715 653.351 186.168V187.928ZM649.799 185.464C649.799 184.035 649.469 182.947 648.807 182.2C648.146 181.453 647.197 181.08 645.959 181.08C644.679 181.08 643.677 181.464 642.951 182.232C642.226 183 641.842 184.077 641.799 185.464H649.799ZM661.603 181.656V195H658.019V181.656H655.139V179H658.019V176.888C658.019 175.245 658.489 173.955 659.427 173.016C660.366 172.077 661.678 171.608 663.363 171.608C664.259 171.608 665.017 171.693 665.635 171.864V174.68C664.953 174.573 664.387 174.52 663.939 174.52C663.129 174.52 662.531 174.733 662.147 175.16C661.785 175.587 661.603 176.248 661.603 177.144V179H665.635V181.656H661.603ZM674.997 195.384C673.439 195.384 672.063 195.053 670.869 194.392C669.695 193.731 668.778 192.771 668.117 191.512C667.455 190.253 667.125 188.749 667.125 187C667.125 185.251 667.455 183.747 668.117 182.488C668.778 181.229 669.695 180.269 670.869 179.608C672.063 178.947 673.439 178.616 674.997 178.616C676.554 178.616 677.93 178.947 679.125 179.608C680.319 180.269 681.247 181.229 681.909 182.488C682.57 183.747 682.901 185.251 682.901 187C682.901 188.749 682.57 190.253 681.909 191.512C681.247 192.771 680.319 193.731 679.125 194.392C677.93 195.053 676.554 195.384 674.997 195.384ZM674.997 192.6C676.341 192.6 677.375 192.131 678.101 191.192C678.847 190.232 679.221 188.835 679.221 187C679.221 185.165 678.847 183.779 678.101 182.84C677.375 181.88 676.341 181.4 674.997 181.4C673.653 181.4 672.607 181.88 671.861 182.84C671.135 183.779 670.773 185.165 670.773 187C670.773 188.835 671.135 190.232 671.861 191.192C672.607 192.131 673.653 192.6 674.997 192.6ZM689.756 182.84C690.182 181.56 690.822 180.536 691.676 179.768C692.55 179 693.617 178.616 694.876 178.616C695.132 178.616 695.313 178.627 695.42 178.648V182.072H694.94C693.404 182.072 692.262 182.467 691.516 183.256C690.897 183.853 690.492 184.557 690.3 185.368C690.108 186.179 690.012 187.16 690.012 188.312V195H686.46V179H689.756V182.84ZM712.039 187.928H700.487C700.508 189.336 700.924 190.467 701.735 191.32C702.567 192.152 703.655 192.568 704.999 192.568C705.98 192.568 706.823 192.344 707.527 191.896C708.252 191.448 708.785 190.797 709.127 189.944L711.911 191.16C711.335 192.525 710.439 193.571 709.223 194.296C708.007 195.021 706.545 195.384 704.839 195.384C702.385 195.384 700.465 194.669 699.079 193.24C697.713 191.811 697.031 189.795 697.031 187.192C697.031 184.525 697.713 182.435 699.079 180.92C700.444 179.384 702.321 178.616 704.711 178.616C707.057 178.616 708.86 179.267 710.119 180.568C711.399 181.848 712.039 183.715 712.039 186.168V187.928ZM708.487 185.464C708.487 184.035 708.156 182.947 707.495 182.2C706.833 181.453 705.884 181.08 704.647 181.08C703.367 181.08 702.364 181.464 701.639 182.232C700.913 183 700.529 184.077 700.487 185.464H708.487ZM729.249 172.28L734.721 188.536C734.999 189.368 735.191 190.147 735.297 190.872H735.361C735.404 190.424 735.489 189.965 735.617 189.496C735.767 189.027 735.873 188.696 735.937 188.504L741.377 172.28H746.849V195H743.297V178.168C743.297 177.187 743.34 176.365 743.425 175.704H743.329C743.265 176.259 743.063 177.08 742.721 178.168L737.057 195H733.537L727.841 178.136C727.713 177.795 727.585 177.379 727.457 176.888C727.351 176.376 727.276 175.981 727.233 175.704H727.105C727.191 176.365 727.233 177.187 727.233 178.168V195H723.809V172.28H729.249ZM765.023 189.912C765.023 192.195 765.194 193.891 765.535 195H761.919C761.77 194.125 761.684 193.197 761.663 192.216C761.279 193.197 760.596 193.976 759.615 194.552C758.634 195.107 757.471 195.384 756.127 195.384C754.463 195.384 753.119 194.957 752.095 194.104C751.092 193.251 750.591 192.109 750.591 190.68C750.591 189.891 750.762 189.176 751.103 188.536C751.466 187.896 751.978 187.384 752.639 187C753.194 186.659 753.887 186.381 754.719 186.168C755.551 185.955 756.618 185.763 757.919 185.592L761.471 185.176V184.824C761.471 183.565 761.204 182.648 760.671 182.072C760.138 181.496 759.316 181.208 758.207 181.208C757.183 181.208 756.372 181.443 755.775 181.912C755.199 182.381 754.879 183.043 754.815 183.896H751.103C751.231 182.275 751.924 180.995 753.183 180.056C754.463 179.096 756.138 178.616 758.207 178.616C760.575 178.616 762.303 179.149 763.391 180.216C764.479 181.261 765.023 182.947 765.023 185.272V189.912ZM757.215 192.792C758.495 192.792 759.519 192.387 760.287 191.576C761.076 190.765 761.471 189.677 761.471 188.312V187.352L757.535 187.928C756.404 188.099 755.583 188.387 755.071 188.792C754.559 189.197 754.303 189.763 754.303 190.488C754.303 191.192 754.559 191.757 755.071 192.184C755.604 192.589 756.319 192.792 757.215 192.792ZM769.428 179H772.98V195H769.428V179ZM771.188 176.408C770.527 176.408 769.983 176.195 769.556 175.768C769.13 175.341 768.916 174.819 768.916 174.2C768.916 173.581 769.13 173.059 769.556 172.632C769.983 172.205 770.527 171.992 771.188 171.992C771.85 171.992 772.394 172.205 772.82 172.632C773.247 173.059 773.46 173.581 773.46 174.2C773.46 174.819 773.247 175.341 772.82 175.768C772.394 176.195 771.85 176.408 771.188 176.408ZM780.914 179V182.168C781.981 179.8 783.794 178.616 786.354 178.616C788.167 178.616 789.533 179.171 790.45 180.28C791.367 181.368 791.826 182.989 791.826 185.144V195H788.242V185.496C788.242 182.829 787.154 181.496 784.978 181.496C783.762 181.496 782.802 181.944 782.098 182.84C781.415 183.736 781.074 184.984 781.074 186.584V195H777.522V179H780.914ZM799.414 179V182.168C800.481 179.8 802.294 178.616 804.854 178.616C806.667 178.616 808.033 179.171 808.95 180.28C809.867 181.368 810.326 182.989 810.326 185.144V195H806.742V185.496C806.742 182.829 805.654 181.496 803.478 181.496C802.262 181.496 801.302 181.944 800.598 182.84C799.915 183.736 799.574 184.984 799.574 186.584V195H796.022V179H799.414ZM828.57 187.928H817.018C817.039 189.336 817.455 190.467 818.266 191.32C819.098 192.152 820.186 192.568 821.53 192.568C822.511 192.568 823.354 192.344 824.058 191.896C824.783 191.448 825.317 190.797 825.658 189.944L828.442 191.16C827.866 192.525 826.97 193.571 825.754 194.296C824.538 195.021 823.077 195.384 821.37 195.384C818.917 195.384 816.997 194.669 815.61 193.24C814.245 191.811 813.562 189.795 813.562 187.192C813.562 184.525 814.245 182.435 815.61 180.92C816.975 179.384 818.853 178.616 821.242 178.616C823.589 178.616 825.391 179.267 826.65 180.568C827.93 181.848 828.57 183.715 828.57 186.168V187.928ZM825.018 185.464C825.018 184.035 824.687 182.947 824.026 182.2C823.365 181.453 822.415 181.08 821.178 181.08C819.898 181.08 818.895 181.464 818.17 182.232C817.445 183 817.061 184.077 817.018 185.464H825.018ZM836.693 181.656V189.56C836.693 191.288 837.504 192.152 839.125 192.152C839.744 192.152 840.288 192.077 840.757 191.928V195C839.904 195.192 839.04 195.288 838.165 195.288C836.331 195.288 835.029 194.84 834.261 193.944C833.493 193.027 833.109 191.725 833.109 190.04V181.656H830.165V179H833.109V175.128L836.693 174.2V179H840.757V181.656H836.693Z" fill="white"/>
<g clip-path="url(#clip0_4050_282)">
<path d="M232.762 103.545C225.239 103.545 217.715 102.135 210.192 99.3169C202.668 96.4984 196.345 92.7788 191.222 88.1582L202.576 71.4548C206.638 75.1975 211.38 78.2124 216.804 80.4996C222.227 82.7868 227.5 83.9304 232.624 83.9304C237.147 83.9304 240.99 83.0294 244.151 81.2273C247.313 79.4253 248.894 77.115 248.894 74.2965C248.894 73.1875 248.675 72.1825 248.236 71.2815C247.798 70.3805 247.059 69.5604 246.021 68.8211C244.982 68.0818 243.99 67.4464 243.044 66.9151C242.097 66.3837 240.701 65.8292 238.855 65.2517C237.009 64.6741 235.52 64.2351 234.389 63.9348C233.258 63.6345 231.539 63.2071 229.231 62.6526C206.43 57.1541 195.03 46.7347 195.03 31.3943C195.03 22.6152 198.491 15.5457 205.415 10.1858C212.338 4.82594 221.454 2.146 232.762 2.146C240.009 2.146 246.644 3.25494 252.667 5.47282C258.691 7.6907 263.595 10.6017 267.379 14.2057L257.133 30.9785C254.271 28.2523 250.602 26.0344 246.125 24.3248C241.647 22.6152 237.147 21.7604 232.624 21.7604C228.239 21.7604 224.639 22.5805 221.823 24.2208C219.008 25.8612 217.6 27.9751 217.6 30.5626C217.6 32.0874 218.085 33.4736 219.054 34.7211C220.023 35.9687 221.419 37.0314 223.243 37.9093C225.066 38.7873 226.935 39.5265 228.851 40.1272C230.766 40.7279 232.97 41.2824 235.462 41.7906C237.17 42.1603 238.763 42.5415 240.24 42.9342C241.717 43.327 243.747 43.9739 246.332 44.8749C248.917 45.7759 251.248 46.7462 253.325 47.7858C255.402 48.8255 257.617 50.1885 259.971 51.8751C262.325 53.5616 264.299 55.3867 265.891 57.3505C267.483 59.3142 268.81 61.6707 269.872 64.42C270.933 67.1692 271.464 70.1148 271.464 73.2568C271.464 79.125 269.756 84.3809 266.341 89.0246C262.925 93.6683 258.287 97.2492 252.425 99.7674C246.563 102.286 240.009 103.545 232.762 103.545ZM392.608 3.87872H414.556V101.812H392.608V62.9298H353.352V101.812H331.336V3.87872H353.352V42.2065H392.608V3.87872ZM499.694 81.0887H544.765V101.812H477.677V3.87872H544.073V24.602H499.694V42.2065H539.365V62.9298H499.694V81.0887ZM660.547 101.812L640.4 71.4902H629.807V101.812H607.791V3.87872H650.231C659.97 3.87872 668.071 6.99761 674.532 13.2354C680.994 19.4732 684.225 27.282 684.225 36.6618C684.225 46.0416 682.402 52.5805 678.756 57.7324C675.109 62.8844 670.217 66.6617 664.078 69.0644L686.925 101.812H660.547ZM629.807 24.602V52.2917H649.747C653.116 52.2917 655.943 51.125 658.228 48.7916C660.512 46.4582 661.949 43.1417 661.949 38.4102C661.949 33.6787 660.524 30.4933 658.262 28.1368C656.001 25.7803 653.162 24.602 649.747 24.602H629.807ZM767.825 81.0887H809.549V101.812H745.809V3.87872H767.825V81.0887ZM921.038 99.6635C914.668 102.251 907.86 103.545 900.614 103.545C893.367 103.545 886.536 102.239 880.121 99.6288C873.705 97.0182 868.212 93.4719 863.643 88.9899C859.073 84.5079 855.473 79.1365 852.842 72.8756C850.211 66.6147 848.896 59.9264 848.896 52.8107C848.896 45.695 850.211 39.0067 852.842 32.7458C855.473 26.4849 859.073 21.1135 863.643 16.6315C868.212 12.1496 873.705 8.61482 880.121 6.02729C886.536 3.43976 893.367 2.146 900.614 2.146C910.261 2.146 919.042 4.35233 926.958 8.76499C934.873 13.1776 941.093 19.2537 945.616 26.9932C950.14 34.7327 952.401 43.3385 952.401 52.8107C952.401 59.9264 951.074 66.6147 948.42 72.8756C945.766 79.1365 942.143 84.5079 937.55 88.9899C932.958 93.4719 927.454 97.0297 921.038 99.6635ZM879.774 73.9499C885.359 79.5408 892.306 82.3363 900.614 82.3363C908.922 82.3363 915.869 79.5293 921.453 73.9153C927.038 68.3012 929.831 61.2664 929.831 52.8107C929.831 44.3551 927.038 37.3202 921.453 31.7062C915.869 26.0922 908.922 23.2852 900.614 23.2852C892.306 23.2852 885.359 26.0922 879.774 31.7062C874.189 37.3202 871.397 44.3551 871.397 52.8107C871.397 61.2664 874.189 68.3128 879.774 73.9499ZM1043.61 103.545C1036.37 103.545 1029.54 102.239 1023.12 99.6288C1016.71 97.0182 1011.21 93.4719 1006.64 88.9899C1002.07 84.5079 998.474 79.1365 995.843 72.8756C993.212 66.6147 991.896 59.9264 991.896 52.8107C991.896 45.695 993.212 39.0067 995.843 32.7458C998.474 26.4849 1002.07 21.1135 1006.64 16.6315C1011.21 12.1496 1016.71 8.61482 1023.12 6.02729C1029.54 3.43976 1036.37 2.146 1043.61 2.146C1052.71 2.146 1061.03 4.09819 1068.57 8.00259C1076.12 11.907 1082.22 17.3015 1086.89 24.1862L1067.85 35.9687C1065.17 32.0412 1061.71 28.9454 1057.46 26.6813C1053.21 24.4172 1048.6 23.2852 1043.61 23.2852C1035.31 23.2852 1028.36 26.0922 1022.77 31.7062C1017.19 37.3202 1014.4 44.3551 1014.4 52.8107C1014.4 61.2664 1017.19 68.3012 1022.77 73.9153C1028.36 79.5293 1035.31 82.3363 1043.61 82.3363C1048.65 82.3363 1053.27 81.2158 1057.5 78.9748C1061.72 76.7338 1065.17 73.6496 1067.85 69.7221L1086.89 81.5046C1082.22 88.3893 1076.12 93.7838 1068.57 97.6882C1061.03 101.593 1052.71 103.545 1043.61 103.545ZM1198.84 101.812L1169.2 66.8804L1161.04 76.0985V101.812H1139.02V3.87872H1161.04V46.1571L1197.45 3.87872H1225.35L1183.4 51.0087L1227.5 101.812H1198.84Z" fill="white"/>
<path fill-rule="evenodd" clip-rule="evenodd" d="M58.3181 56.1032L120.954 7.73837C127.379 2.57946 133.482 0 139.263 0C147.936 0 158.536 0 161.427 0C164.318 0 165.763 1.93459 165.763 3.86919C165.763 5.80378 164.318 7.73837 161.427 7.73837C158.536 7.73837 150.827 7.73837 144.082 7.73837C137.336 7.73837 133.482 10.6403 127.7 16.444L58.3181 89.9586C49.9666 99.6316 40.6514 104.307 30.3727 103.984C14.9545 103.501 0.5 94.7951 0.5 79.3183C0.5 64.8072 0.5 50.296 0.5 35.7849C0.5 33.6508 2.23001 31.9208 4.3641 31.9208H54.454C56.5881 31.9208 58.3181 33.6508 58.3181 35.7849V56.1032Z" fill="white"/>
</g>
<defs>
<clipPath id="clip0_4050_282">
<rect width="1227" height="104" fill="white" transform="translate(0.5)"/>
</clipPath>
</defs>
</svg>

